{"title":"Broadcast News(1987)MPEG-4[DaScubaDude]","uid":15054580,"size":1321199598,"categoryP":"video","categoryS":"movies","magnet":"?xt=urn:btih:8549d82a7f54b5ca6dcf0cf88f5026b3481433eb&amp;dn=Broadcast+News%281987%29MPEG-4%5BDaScubaDude%5D&amp;tr=udp%3A%2F%2Ftracker.leechers-paradise.org%3A6969&amp;tr=udp%3A%2F%2Fzer0day.ch%3A1337&amp;tr=udp%3A%2F%2Fopen.demonii.com%3A1337&amp;tr=udp%3A%2F%2Ftracker.coppersurfer.tk%3A6969&amp;tr=udp%3A%2F%2Fexodus.desync.com%3A6969","seeders":0,"leechers":1,"uploader":"dascuba","files":1,"time":1466690936,"description":"Broadcast News (1987)\r\nR | 2h 13min | Comedy, Drama, Romance | 25 December 1987 (USA)\r\nTake two rival TV reporters: one handsome, one talented, both male. Add one producer, female. Mix well and watch the sparks fly.\r\nDirector: James L. Brooks\r\nWriter: James L. Brooks\r\nStars: William Hurt, Albert Brooks, Holly Hunter |\r\n\r\nGeneral\r\nComplete name                            : BroadcastNewsBROADCAST_NEWS_DISC01_Title2.mp4\r\nFormat                                   : MPEG-4\r\nFormat profile                           : Base Media\r\nCodec ID                                 : isom (isom/iso2/avc1/mp41)\r\nFile size                                : 1.23 GiB\r\nDuration                                 : 2h 12mn\r\nOverall bit rate                         : 1 330 Kbps\r\nMovie name                               : BROADCAST_NEWS_DISC01\r\nGenre                                    : Comedy_Drama\r\nWriting application                      : Lavf54.6.100\r\n\r\nVideo\r\nID                                       : 1\r\nFormat                                   : AVC\r\nFormat/Info                              : Advanced Video Codec\r\nFormat profile                           :   \r\nFormat settings, CABAC                   : No\r\nFormat settings, ReFrames                : 6 frames\r\nFormat settings, GOP                     : N=1\r\nCodec ID                                 : avc1\r\nCodec ID/Info                            : Advanced Video Coding\r\nDuration                                 : 2h 12mn\r\nBit rate                                 : 1 195 Kbps\r\nWidth                                    : 720 pixels\r\nHeight                                   : 404 pixels\r\nDisplay aspect ratio                     : 16:9\r\nFrame rate mode                          : Constant\r\nFrame rate                               : 29.970 (30000/1001) fps\r\nColor space                              : YUV\r\nChroma subsampling                       : 4:2:0\r\nBit depth                                : 8 bits\r\nScan type                                : Progressive\r\nBits/(Pixel*Frame)                       : 0.137\r\nStream size                              : 1.11 GiB (90%)\r\n\r\nAudio\r\nID                                       : 2\r\nFormat                                   : AAC\r\nFormat/Info                              : Advanced Audio Codec\r\nFormat profile                           : LC\r\nCodec ID                                 : 40\r\nDuration                                 : 2h 12mn\r\nBit rate mode                            : Constant\r\nBit rate                                 : 128 Kbps\r\nChannel(s)                               : 2 channels\r\nChannel positions                        : Front: L R\r\nSampling rate                            : 44.1 KHz\r\nFrame rate                               : 43.066 fps (1024 spf)\r\nCompression mode                         : Lossy\r\nStream size                              : 121 MiB (10%)\r\nDefault                                  : Yes\r\nAlternate group                          : 1","torrent":{"xt":"urn:btih:8549d82a7f54b5ca6dcf0cf88f5026b3481433eb","amp;dn":"Broadcast+News%281987%29MPEG-4%5BDaScubaDude%5D","amp;tr":["udp%3A%2F%2Ftracker.leechers-paradise.org%3A6969","udp%3A%2F%2Fzer0day.ch%3A1337","udp%3A%2F%2Fopen.demonii.com%3A1337","udp%3A%2F%2Ftracker.coppersurfer.tk%3A6969","udp%3A%2F%2Fexodus.desync.com%3A6969"],"infoHash":"8549d82a7f54b5ca6dcf0cf88f5026b3481433eb","infoHashBuffer":{"type":"Buffer","data":[133,73,216,42,127,84,181,202,109,207,12,248,143,80,38,179,72,20,51,235]},"announce":[],"urlList":[]}}